# xmcd CD database file
#
# Track frame offsets:
#	150
#	19825
#	43828
#	63238
#	100814
#	127201
#	159800
#
# Disc length: 2567 seconds
#
# Revision: 3
# Processed by: cddbd v1.4PL0 Copyright (c) Steve Scherf et al.
# Submitted via: CDex 1.50beta9
#
DISCID=560a0507
DTITLE=ATHARWAN - Adventures Of Evolution
DYEAR=1997
DGENRE=New Age
TTITLE0=Walk of Life
TTITLE1=Across the great waters
TTITLE2=Goinf trough fire
TTITLE3=A place in the sun
TTITLE4=One house - seven windows
TTITLE5=Into the vision
TTITLE6=To walk with your on crown road
EXTD=YEAR: 1997
EXTT0=
EXTT1=
EXTT2=
EXTT3=
EXTT4=
EXTT5=
EXTT6=
PLAYORDER=
